{"title":"The.Company.Men.2010.LIMITED.720p.BRRip.x264.Feel-Free","uid":6408684,"size":2702640704,"categoryP":"video","categoryS":"hd___movies","magnet":"?xt=urn:btih:415f507cbaafc5f5623190312f76d1e519123db4&amp;dn=The.Company.Men.2010.LIMITED.720p.BRRip.x264.Feel-Free&amp;tr=udp%3A%2F%2Ftracker.openbittorrent.com%3A80&amp;tr=udp%3A%2F%2Fopen.demonii.com%3A1337&amp;tr=udp%3A%2F%2Ftracker.coppersurfer.tk%3A6969&amp;tr=udp%3A%2F%2Fexodus.desync.com%3A6969","seeders":1,"leechers":2,"uploader":"hiest","files":-1,"time":1305898094,"description":"Full Credits to (Pitic):\n\n\n ######## ######## ######## ##          ######## ########  ######## ######\n ##       ##       ##       ##          ##       ##     ## ##       ##       \n ##       ##       ##       ##          ##       ##     ## ##       ##       \n ######   ######   ######   ##          ######   ########  ######   ######   \n ##       ##       ##       ##          ##       ##   ##   ##       ##       \n ##       ##       ##       ##          ##       ##    ##  ##       ##       \n ##       ######## ######## ########    ##       ##     ## ######## ###### \n\n Genre:Drama\n Language:English\n IMDb:\n &lt;a href=&quot; http://www.imdb.com/title/tt1172991/&quot; rel=&quot;nofollow&quot; target=&quot;_NEW&quot;&gt; http://www.imdb.com/title/tt1172991/&lt;/a&gt;\n Source:BluRay.x264.DiVERSiFY Thx.\n Subtitles:Romana\n\n Format : MPEG-4\n Format profile : Base Media\n Codec ID : isom\n File size : 2.51 GiB\n Duration : 1h 44mn\n Overall bit rate : 3 439 Kbps\n\n Video\n ID : 1\n Format : AVC\n Format/Info : Advanced Video Codec\n Format profile : &lt;a class=&quot;__cf_email__&quot; href=&quot;/cdn-cgi/l/email-protection&quot; data-cfemail=&quot;1c54757b745c5028322d&quot;&gt;[email&amp;#160;protected]&lt;/a&gt;&lt;script cf-hash='f9e31' type=&quot;text/javascript&quot;&gt;\n/* &lt;![CDATA[ */!function(){try{var t=&quot;currentScript&quot;in document?document.currentScript:function(){for(var t=document.getElementsByTagName(&quot;script&quot;),e=t.length;e--;)if(t[e].getAttribute(&quot;cf-hash&quot;))return t[e]}();if(t&amp;&amp;t.previousSibling){var e,r,n,i,c=t.previousSibling,a=c.getAttribute(&quot;data-cfemail&quot;);if(a){for(e=&quot;&quot;,r=parseInt(a.substr(0,2),16),n=2;a.length-n;n+=2)i=parseInt(a.substr(n,2),16)^r,e+=String.fromCharCode(i);e=document.createTextNode(e),c.parentNode.replaceChild(e,c)}}}catch(u){}}();/* ]]&gt; */&lt;/script&gt;\n Format settings, CABAC : Yes\n Format settings, ReFrames : 3 frames\n Codec ID : avc1\n Codec ID/Info : Advanced Video Coding\n Duration : 1h 44mn\n Bit rate mode : Variable\n Bit rate : 3 000 Kbps\n Maximum bit rate : 18.7 Mbps\n Width : 1 280 pixels\n Height : 720 pixels\n Display aspect ratio : 16:9\n Frame rate mode : Constant\n Frame rate : 23.976 fps\n Color space : YUV\n Chroma subsampling : 4:2:0\n Bit depth : 8 bits\n Scan type : Progressive\n Bits/(Pixel*Frame) : 0.136\n Stream size : 2.20 GiB (88%)\n Writing library : x264\n\n Audio\n ID : 2\n Format : AAC\n Format/Info : Advanced Audio Codec\n Format version : Version 4\n Format profile : LC\n Format settings, SBR : No\n Codec ID : 40\n Duration : 1h 44mn\n Bit rate mode : Variable\n Bit rate : 424 Kbps\n Maximum bit rate : 528 Kbps\n Channel(s) : 6 channels\n Channel positions : Front: L C R, Side: L R, LFE\n Sampling rate : 48.0 KHz\n Stream size : 317 MiB (12%)\n\n\n Plot:\n The story centers on a year in the life of three men trying to survive a \n round of corporate downsizing at a major company - and how that affects \n them, their families, and their communities.\n\n\n Full Credits to (Pitic):\n ######## ######## ######## ##          ######## ########  ######## ######\n ##       ##       ##       ##          ##       ##     ## ##       ##       \n ##       ##       ##       ##          ##       ##     ## ##       ##       \n ######   ######   ######   ##          ######   ########  ######   ######   \n ##       ##       ##       ##          ##       ##   ##   ##       ##       \n ##       ##       ##       ##          ##       ##    ##  ##       ##       \n ##       ######## ######## ########    ##       ##     ## ######## ######","torrent":{"xt":"urn:btih:415f507cbaafc5f5623190312f76d1e519123db4","amp;dn":"The.Company.Men.2010.LIMITED.720p.BRRip.x264.Feel-Free","amp;tr":["udp%3A%2F%2Ftracker.openbittorrent.com%3A80","udp%3A%2F%2Fopen.demonii.com%3A1337","udp%3A%2F%2Ftracker.coppersurfer.tk%3A6969","udp%3A%2F%2Fexodus.desync.com%3A6969"],"infoHash":"415f507cbaafc5f5623190312f76d1e519123db4","infoHashBuffer":{"type":"Buffer","data":[65,95,80,124,186,175,197,245,98,49,144,49,47,118,209,229,25,18,61,180]},"announce":[],"urlList":[]}}